# Tiled2Unity generated file. Do not modify by hand.
# Wavefront file for 'Level_01_mesh_0001.obj'

# Vertices (Count = 656)
v -11.52 -6.24 0
v -11.68 -6.24 0
v -11.68 -6.08 0
v -11.52 -6.08 0
v -4.16 -7.52 0
v -4.32 -7.52 0
v -4.32 -7.36 0
v -4.16 -7.36 0
v -4 -7.68 0
v -4.16 -7.68 0
v -4.16 -7.52 0
v -4 -7.52 0
v -3.84 -7.84 0
v -4 -7.84 0
v -4 -7.68 0
v -3.84 -7.68 0
v -3.52 -8 0
v -3.68 -8 0
v -3.68 -7.84 0
v -3.52 -7.84 0
v -3.36 -8.16 0
v -3.52 -8.16 0
v -3.52 -8 0
v -3.36 -8 0
v -3.2 -8.32 0
v -3.36 -8.32 0
v -3.36 -8.16 0
v -3.2 -8.16 0
v -4.64 -8.32 0
v -4.8 -8.32 0
v -4.8 -8.16 0
v -4.64 -8.16 0
v -3.04 -8.48 0
v -3.2 -8.48 0
v -3.2 -8.32 0
v -3.04 -8.32 0
v -2.88 -8.639999 0
v -3.04 -8.639999 0
v -3.04 -8.48 0
v -2.88 -8.48 0
v -2.56 -8.8 0
v -2.72 -8.8 0
v -2.72 -8.639999 0
v -2.56 -8.639999 0
v -2.4 -8.96 0
v -2.56 -8.96 0
v -2.56 -8.8 0
v -2.4 -8.8 0
v -2.24 -9.12 0
v -2.4 -9.12 0
v -2.4 -8.96 0
v -2.24 -8.96 0
v -5.28 -9.12 0
v -5.44 -9.12 0
v -5.44 -8.96 0
v -5.28 -8.96 0
v -2.08 -9.28 0
v -2.24 -9.28 0
v -2.24 -9.12 0
v -2.08 -9.12 0
v -1.92 -9.44 0
v -2.08 -9.44 0
v -2.08 -9.28 0
v -1.92 -9.28 0
v -1.76 -9.599999 0
v -1.92 -9.599999 0
v -1.92 -9.44 0
v -1.76 -9.44 0
v -1.6 -9.76 0
v -1.76 -9.76 0
v -1.76 -9.599999 0
v -1.6 -9.599999 0
v -5.6 -9.76 0
v -5.76 -9.76 0
v -5.76 -9.599999 0
v -5.6 -9.599999 0
v -8.16 -9.76 0
v -8.32 -9.76 0
v -8.32 -9.599999 0
v -8.16 -9.599999 0
v -1.28 -9.92 0
v -1.44 -9.92 0
v -1.44 -9.76 0
v -1.28 -9.76 0
v -7.84 -9.92 0
v -8 -9.92 0
v -8 -9.76 0
v -7.84 -9.76 0
v -1.12 -10.08 0
v -1.28 -10.08 0
v -1.28 -9.92 0
v -1.12 -9.92 0
v -6.08 -10.08 0
v -6.24 -10.08 0
v -6.24 -9.92 0
v -6.08 -9.92 0
v -7.52 -10.08 0
v -7.68 -10.08 0
v -7.68 -9.92 0
v -7.52 -9.92 0
v -8.48 -10.08 0
v -8.639999 -10.08 0
v -8.639999 -9.92 0
v -8.48 -9.92 0
v -0.96 -10.24 0
v -1.12 -10.24 0
v -1.12 -10.08 0
v -0.96 -10.08 0
v -7.04 -10.24 0
v -7.2 -10.24 0
v -7.2 -10.08 0
v -7.04 -10.08 0
v -8.96 -10.24 0
v -9.12 -10.24 0
v -9.12 -10.08 0
v -8.96 -10.08 0
v -0.64 -10.4 0
v -0.8 -10.4 0
v -0.8 -10.24 0
v -0.64 -10.24 0
v -6.56 -10.4 0
v -6.72 -10.4 0
v -6.72 -10.24 0
v -6.56 -10.24 0
v -9.44 -10.4 0
v -9.599999 -10.4 0
v -9.599999 -10.24 0
v -9.44 -10.24 0
v -0.48 -10.56 0
v -0.64 -10.56 0
v -0.64 -10.4 0
v -0.48 -10.4 0
v 0 -10.72 0
v -0.16 -10.72 0
v -0.16 -10.56 0
v 0 -10.56 0
v -0.16 -10.72 0
v -0.32 -10.72 0
v -0.32 -10.56 0
v -0.16 -10.56 0
v -0.32 -10.72 0
v -0.48 -10.72 0
v -0.48 -10.56 0
v -0.32 -10.56 0
v -10.08 -10.72 0
v -10.24 -10.72 0
v -10.24 -10.56 0
v -10.08 -10.56 0
v -11.68 -10.88 0
v -11.84 -10.88 0
v -11.84 -10.72 0
v -11.68 -10.72 0
v -14.24 -10.88 0
v -14.4 -10.88 0
v -14.4 -10.72 0
v -14.24 -10.72 0
v -10.72 -11.04 0
v -10.88 -11.04 0
v -10.88 -10.88 0
v -10.72 -10.88 0
v -11.36 -11.04 0
v -11.52 -11.04 0
v -11.52 -10.88 0
v -11.36 -10.88 0
v -12.16 -11.04 0
v -12.32 -11.04 0
v -12.32 -10.88 0
v -12.16 -10.88 0
v -13.92 -11.04 0
v -14.08 -11.04 0
v -14.08 -10.88 0
v -13.92 -10.88 0
v -2.88 -11.2 0
v -3.04 -11.2 0
v -3.04 -11.04 0
v -2.88 -11.04 0
v -3.52 -11.2 0
v -3.68 -11.2 0
v -3.68 -11.04 0
v -3.52 -11.04 0
v -4 -11.2 0
v -4.16 -11.2 0
v -4.16 -11.04 0
v -4 -11.04 0
v -8.639999 -11.2 0
v -8.8 -11.2 0
v -8.8 -11.04 0
v -8.639999 -11.04 0
v -8.8 -11.2 0
v -8.96 -11.2 0
v -8.96 -11.04 0
v -8.8 -11.04 0
v -8.96 -11.2 0
v -9.12 -11.2 0
v -9.12 -11.04 0
v -8.96 -11.04 0
v -9.599999 -11.2 0
v -9.76 -11.2 0
v -9.76 -11.04 0
v -9.599999 -11.04 0
v -9.76 -11.2 0
v -9.92 -11.2 0
v -9.92 -11.04 0
v -9.76 -11.04 0
v -9.92 -11.2 0
v -10.08 -11.2 0
v -10.08 -11.04 0
v -9.92 -11.04 0
v -12.64 -11.2 0
v -12.8 -11.2 0
v -12.8 -11.04 0
v -12.64 -11.04 0
v -13.6 -11.2 0
v -13.76 -11.2 0
v -13.76 -11.04 0
v -13.6 -11.04 0
v -14.56 -11.2 0
v -14.72 -11.2 0
v -14.72 -11.04 0
v -14.56 -11.04 0
v -2.4 -11.36 0
v -2.56 -11.36 0
v -2.56 -11.2 0
v -2.4 -11.2 0
v -2.56 -11.36 0
v -2.72 -11.36 0
v -2.72 -11.2 0
v -2.56 -11.2 0
v -2.88 -11.36 0
v -3.04 -11.36 0
v -3.04 -11.2 0
v -2.88 -11.2 0
v -3.04 -11.36 0
v -3.2 -11.36 0
v -3.2 -11.2 0
v -3.04 -11.2 0
v -3.2 -11.36 0
v -3.36 -11.36 0
v -3.36 -11.2 0
v -3.2 -11.2 0
v -3.36 -11.36 0
v -3.52 -11.36 0
v -3.52 -11.2 0
v -3.36 -11.2 0
v -3.52 -11.36 0
v -3.68 -11.36 0
v -3.68 -11.2 0
v -3.52 -11.2 0
v -8.48 -11.36 0
v -8.639999 -11.36 0
v -8.639999 -11.2 0
v -8.48 -11.2 0
v -8.639999 -11.36 0
v -8.8 -11.36 0
v -8.8 -11.2 0
v -8.639999 -11.2 0
v -9.12 -11.36 0
v -9.28 -11.36 0
v -9.28 -11.2 0
v -9.12 -11.2 0
v -9.28 -11.36 0
v -9.44 -11.36 0
v -9.44 -11.2 0
v -9.28 -11.2 0
v -9.44 -11.36 0
v -9.599999 -11.36 0
v -9.599999 -11.2 0
v -9.44 -11.2 0
v -9.92 -11.36 0
v -10.08 -11.36 0
v -10.08 -11.2 0
v -9.92 -11.2 0
v -10.08 -11.36 0
v -10.24 -11.36 0
v -10.24 -11.2 0
v -10.08 -11.2 0
v -11.84 -11.36 0
v -12 -11.36 0
v -12 -11.2 0
v -11.84 -11.2 0
v -13.12 -11.36 0
v -13.28 -11.36 0
v -13.28 -11.2 0
v -13.12 -11.2 0
v -14.88 -11.36 0
v -15.04 -11.36 0
v -15.04 -11.2 0
v -14.88 -11.2 0
v -0.32 -11.52 0
v -0.48 -11.52 0
v -0.48 -11.36 0
v -0.32 -11.36 0
v -0.48 -11.52 0
v -0.64 -11.52 0
v -0.64 -11.36 0
v -0.48 -11.36 0
v -0.64 -11.52 0
v -0.8 -11.52 0
v -0.8 -11.36 0
v -0.64 -11.36 0
v -0.8 -11.52 0
v -0.96 -11.52 0
v -0.96 -11.36 0
v -0.8 -11.36 0
v -0.96 -11.52 0
v -1.12 -11.52 0
v -1.12 -11.36 0
v -0.96 -11.36 0
v -1.12 -11.52 0
v -1.28 -11.52 0
v -1.28 -11.36 0
v -1.12 -11.36 0
v -1.28 -11.52 0
v -1.44 -11.52 0
v -1.44 -11.36 0
v -1.28 -11.36 0
v -1.44 -11.52 0
v -1.6 -11.52 0
v -1.6 -11.36 0
v -1.44 -11.36 0
v -1.6 -11.52 0
v -1.76 -11.52 0
v -1.76 -11.36 0
v -1.6 -11.36 0
v -1.76 -11.52 0
v -1.92 -11.52 0
v -1.92 -11.36 0
v -1.76 -11.36 0
v -2.08 -11.52 0
v -2.24 -11.52 0
v -2.24 -11.36 0
v -2.08 -11.36 0
v -4.16 -11.52 0
v -4.32 -11.52 0
v -4.32 -11.36 0
v -4.16 -11.36 0
v -4.64 -11.52 0
v -4.8 -11.52 0
v -4.8 -11.36 0
v -4.64 -11.36 0
v -8.32 -11.52 0
v -8.48 -11.52 0
v -8.48 -11.36 0
v -8.32 -11.36 0
v -8.48 -11.52 0
v -8.639999 -11.52 0
v -8.639999 -11.36 0
v -8.48 -11.36 0
v -9.28 -11.52 0
v -9.44 -11.52 0
v -9.44 -11.36 0
v -9.28 -11.36 0
v -10.08 -11.52 0
v -10.24 -11.52 0
v -10.24 -11.36 0
v -10.08 -11.36 0
v -10.24 -11.52 0
v -10.4 -11.52 0
v -10.4 -11.36 0
v -10.24 -11.36 0
v -11.52 -11.52 0
v -11.68 -11.52 0
v -11.68 -11.36 0
v -11.52 -11.36 0
v -11.68 -11.52 0
v -11.84 -11.52 0
v -11.84 -11.36 0
v -11.68 -11.36 0
v -11.84 -11.52 0
v -12 -11.52 0
v -12 -11.36 0
v -11.84 -11.36 0
v -12 -11.52 0
v -12.16 -11.52 0
v -12.16 -11.36 0
v -12 -11.36 0
v -12.16 -11.52 0
v -12.32 -11.52 0
v -12.32 -11.36 0
v -12.16 -11.36 0
v -12.32 -11.52 0
v -12.48 -11.52 0
v -12.48 -11.36 0
v -12.32 -11.36 0
v -4 -11.68 0
v -4.16 -11.68 0
v -4.16 -11.52 0
v -4 -11.52 0
v -4.32 -11.68 0
v -4.48 -11.68 0
v -4.48 -11.52 0
v -4.32 -11.52 0
v -4.48 -11.68 0
v -4.64 -11.68 0
v -4.64 -11.52 0
v -4.48 -11.52 0
v -5.12 -11.68 0
v -5.28 -11.68 0
v -5.28 -11.52 0
v -5.12 -11.52 0
v -5.28 -11.68 0
v -5.44 -11.68 0
v -5.44 -11.52 0
v -5.28 -11.52 0
v -5.44 -11.68 0
v -5.6 -11.68 0
v -5.6 -11.52 0
v -5.44 -11.52 0
v -5.6 -11.68 0
v -5.76 -11.68 0
v -5.76 -11.52 0
v -5.6 -11.52 0
v -5.76 -11.68 0
v -5.92 -11.68 0
v -5.92 -11.52 0
v -5.76 -11.52 0
v -5.92 -11.68 0
v -6.08 -11.68 0
v -6.08 -11.52 0
v -5.92 -11.52 0
v -6.24 -11.68 0
v -6.4 -11.68 0
v -6.4 -11.52 0
v -6.24 -11.52 0
v -6.56 -11.68 0
v -6.72 -11.68 0
v -6.72 -11.52 0
v -6.56 -11.52 0
v -6.72 -11.68 0
v -6.88 -11.68 0
v -6.88 -11.52 0
v -6.72 -11.52 0
v -7.04 -11.68 0
v -7.2 -11.68 0
v -7.2 -11.52 0
v -7.04 -11.52 0
v -7.36 -11.68 0
v -7.52 -11.68 0
v -7.52 -11.52 0
v -7.36 -11.52 0
v -7.52 -11.68 0
v -7.68 -11.68 0
v -7.68 -11.52 0
v -7.52 -11.52 0
v -7.68 -11.68 0
v -7.84 -11.68 0
v -7.84 -11.52 0
v -7.68 -11.52 0
v -7.84 -11.68 0
v -8 -11.68 0
v -8 -11.52 0
v -7.84 -11.52 0
v -8 -11.68 0
v -8.16 -11.68 0
v -8.16 -11.52 0
v -8 -11.52 0
v -8.16 -11.68 0
v -8.32 -11.68 0
v -8.32 -11.52 0
v -8.16 -11.52 0
v -8.32 -11.68 0
v -8.48 -11.68 0
v -8.48 -11.52 0
v -8.32 -11.52 0
v -9.28 -11.68 0
v -9.44 -11.68 0
v -9.44 -11.52 0
v -9.28 -11.52 0
v -10.24 -11.68 0
v -10.4 -11.68 0
v -10.4 -11.52 0
v -10.24 -11.52 0
v -10.4 -11.68 0
v -10.56 -11.68 0
v -10.56 -11.52 0
v -10.4 -11.52 0
v -10.56 -11.68 0
v -10.72 -11.68 0
v -10.72 -11.52 0
v -10.56 -11.52 0
v -10.72 -11.68 0
v -10.88 -11.68 0
v -10.88 -11.52 0
v -10.72 -11.52 0
v -10.88 -11.68 0
v -11.04 -11.68 0
v -11.04 -11.52 0
v -10.88 -11.52 0
v -11.04 -11.68 0
v -11.2 -11.68 0
v -11.2 -11.52 0
v -11.04 -11.52 0
v -11.2 -11.68 0
v -11.36 -11.68 0
v -11.36 -11.52 0
v -11.2 -11.52 0
v -11.36 -11.68 0
v -11.52 -11.68 0
v -11.52 -11.52 0
v -11.36 -11.52 0
v -11.84 -11.68 0
v -12 -11.68 0
v -12 -11.52 0
v -11.84 -11.52 0
v -13.28 -11.68 0
v -13.44 -11.68 0
v -13.44 -11.52 0
v -13.28 -11.52 0
v -13.44 -11.68 0
v -13.6 -11.68 0
v -13.6 -11.52 0
v -13.44 -11.52 0
v -13.6 -11.68 0
v -13.76 -11.68 0
v -13.76 -11.52 0
v -13.6 -11.52 0
v -13.76 -11.68 0
v -13.92 -11.68 0
v -13.92 -11.52 0
v -13.76 -11.52 0
v -13.92 -11.68 0
v -14.08 -11.68 0
v -14.08 -11.52 0
v -13.92 -11.52 0
v -14.08 -11.68 0
v -14.24 -11.68 0
v -14.24 -11.52 0
v -14.08 -11.52 0
v -14.24 -11.68 0
v -14.4 -11.68 0
v -14.4 -11.52 0
v -14.24 -11.52 0
v -14.4 -11.68 0
v -14.56 -11.68 0
v -14.56 -11.52 0
v -14.4 -11.52 0
v -15.2 -11.68 0
v -15.36 -11.68 0
v -15.36 -11.52 0
v -15.2 -11.52 0
v -15.52 -11.68 0
v -15.68 -11.68 0
v -15.68 -11.52 0
v -15.52 -11.52 0
v -15.84 -11.68 0
v -16 -11.68 0
v -16 -11.52 0
v -15.84 -11.52 0
v -0.8 -11.84 0
v -0.96 -11.84 0
v -0.96 -11.68 0
v -0.8 -11.68 0
v -12 -11.84 0
v -12.16 -11.84 0
v -12.16 -11.68 0
v -12 -11.68 0
v -12.16 -11.84 0
v -12.32 -11.84 0
v -12.32 -11.68 0
v -12.16 -11.68 0
v -12.32 -11.84 0
v -12.48 -11.84 0
v -12.48 -11.68 0
v -12.32 -11.68 0
v -12.48 -11.84 0
v -12.64 -11.84 0
v -12.64 -11.68 0
v -12.48 -11.68 0
v -12.64 -11.84 0
v -12.8 -11.84 0
v -12.8 -11.68 0
v -12.64 -11.68 0
v -12.8 -11.84 0
v -12.96 -11.84 0
v -12.96 -11.68 0
v -12.8 -11.68 0
v -12.96 -11.84 0
v -13.12 -11.84 0
v -13.12 -11.68 0
v -12.96 -11.68 0
v -13.12 -11.84 0
v -13.28 -11.84 0
v -13.28 -11.68 0
v -13.12 -11.68 0
v -13.28 -11.84 0
v -13.44 -11.84 0
v -13.44 -11.68 0
v -13.28 -11.68 0
v -13.44 -11.84 0
v -13.6 -11.84 0
v -13.6 -11.68 0
v -13.44 -11.68 0
v -13.6 -11.84 0
v -13.76 -11.84 0
v -13.76 -11.68 0
v -13.6 -11.68 0
v -13.92 -11.84 0
v -14.08 -11.84 0
v -14.08 -11.68 0
v -13.92 -11.68 0
v -14.08 -11.84 0
v -14.24 -11.84 0
v -14.24 -11.68 0
v -14.08 -11.68 0
v -14.24 -11.84 0
v -14.4 -11.84 0
v -14.4 -11.68 0
v -14.24 -11.68 0
v -14.56 -11.84 0
v -14.72 -11.84 0
v -14.72 -11.68 0
v -14.56 -11.68 0
v -12 -12 0
v -12.16 -12 0
v -12.16 -11.84 0
v -12 -11.84 0
v -12.16 -12 0
v -12.32 -12 0
v -12.32 -11.84 0
v -12.16 -11.84 0
v -12.32 -12 0
v -12.48 -12 0
v -12.48 -11.84 0
v -12.32 -11.84 0
v -12.64 -12 0
v -12.8 -12 0
v -12.8 -11.84 0
v -12.64 -11.84 0
v -12.8 -12 0
v -12.96 -12 0
v -12.96 -11.84 0
v -12.8 -11.84 0
v -12.96 -12 0
v -13.12 -12 0
v -13.12 -11.84 0
v -12.96 -11.84 0
v -13.28 -12 0
v -13.44 -12 0
v -13.44 -11.84 0
v -13.28 -11.84 0
v -1.44 -12.32 0
v -1.6 -12.32 0
v -1.6 -12.16 0
v -1.44 -12.16 0
v -1.6 -12.32 0
v -1.76 -12.32 0
v -1.76 -12.16 0
v -1.6 -12.16 0
v -1.76 -12.32 0
v -1.92 -12.32 0
v -1.92 -12.16 0
v -1.76 -12.16 0
v -0.8 -12.64 0
v -0.96 -12.64 0
v -0.96 -12.48 0
v -0.8 -12.48 0

# Texture cooridinates (Count = 60)
vt 0.04 0.4782609
vt 0.08 0.4782609
vt 0.08 0.5217391
vt 0.04 0.5217391
vt 0.04 0.9130435
vt 0.08 0.9130435
vt 0.08 0.9565217
vt 0.04 0.9565217
vt 0.12 0.9130435
vt 0.16 0.9130435
vt 0.16 0.9565217
vt 0.12 0.9565217
vt 0 0.7391304
vt 0.04 0.7391304
vt 0.04 0.7826087
vt 0 0.7826087
vt 0.08 0.7391304
vt 0.08 0.7826087
vt 0.12 0.7391304
vt 0.12 0.7826087
vt 0.16 0.7391304
vt 0.16 0.7826087
vt 0.2 0.7391304
vt 0.2 0.7826087
vt 0.6 0.3478261
vt 0.64 0.3478261
vt 0.64 0.3913043
vt 0.6 0.3913043
vt 0.76 0.3478261
vt 0.8 0.3478261
vt 0.8 0.3913043
vt 0.76 0.3913043
vt 0 0.8695652
vt 0.04 0.8695652
vt 0 0.9130435
vt 0.08 0.8695652
vt 0.12 0.8695652
vt 0.16 0.8695652
vt 0.2 0.8695652
vt 0.2 0.9130435
vt 0.24 0.8695652
vt 0.24 0.9130435
vt 0.28 0.8695652
vt 0.28 0.9130435
vt 0.32 0.8695652
vt 0.32 0.9130435
vt 0.04 0.8260869
vt 0.08 0.8260869
vt 0.2 0.8260869
vt 0.24 0.8260869
vt 0 0.8260869
vt 0.36 0.8695652
vt 0.4 0.8695652
vt 0.4 0.9130435
vt 0.36 0.9130435
vt 0.44 0.8695652
vt 0.44 0.9130435
vt 0.48 0.8695652
vt 0.48 0.9130435
vt 0.28 0.8260869

# Normal
vn 0 0 -1

# Mesh description
g Level_01_mesh_0001

# Faces
f 1/1/1 2/2/1 3/3/1 4/4/1
f 5/5/1 6/6/1 7/7/1 8/8/1
f 9/5/1 10/6/1 11/7/1 12/8/1
f 13/5/1 14/6/1 15/7/1 16/8/1
f 17/5/1 18/6/1 19/7/1 20/8/1
f 21/5/1 22/6/1 23/7/1 24/8/1
f 25/5/1 26/6/1 27/7/1 28/8/1
f 29/5/1 30/6/1 31/7/1 32/8/1
f 33/5/1 34/6/1 35/7/1 36/8/1
f 37/5/1 38/6/1 39/7/1 40/8/1
f 41/5/1 42/6/1 43/7/1 44/8/1
f 45/5/1 46/6/1 47/7/1 48/8/1
f 49/5/1 50/6/1 51/7/1 52/8/1
f 53/5/1 54/6/1 55/7/1 56/8/1
f 57/5/1 58/6/1 59/7/1 60/8/1
f 61/5/1 62/6/1 63/7/1 64/8/1
f 65/5/1 66/6/1 67/7/1 68/8/1
f 69/5/1 70/6/1 71/7/1 72/8/1
f 73/5/1 74/6/1 75/7/1 76/8/1
f 77/5/1 78/6/1 79/7/1 80/8/1
f 81/5/1 82/6/1 83/7/1 84/8/1
f 85/5/1 86/6/1 87/7/1 88/8/1
f 89/9/1 90/10/1 91/11/1 92/12/1
f 93/5/1 94/6/1 95/7/1 96/8/1
f 97/5/1 98/6/1 99/7/1 100/8/1
f 101/5/1 102/6/1 103/7/1 104/8/1
f 105/5/1 106/6/1 107/7/1 108/8/1
f 109/5/1 110/6/1 111/7/1 112/8/1
f 113/5/1 114/6/1 115/7/1 116/8/1
f 117/5/1 118/6/1 119/7/1 120/8/1
f 121/5/1 122/6/1 123/7/1 124/8/1
f 125/5/1 126/6/1 127/7/1 128/8/1
f 129/5/1 130/6/1 131/7/1 132/8/1
f 133/5/1 134/6/1 135/7/1 136/8/1
f 137/5/1 138/6/1 139/7/1 140/8/1
f 141/5/1 142/6/1 143/7/1 144/8/1
f 145/9/1 146/10/1 147/11/1 148/12/1
f 149/9/1 150/10/1 151/11/1 152/12/1
f 153/9/1 154/10/1 155/11/1 156/12/1
f 157/9/1 158/10/1 159/11/1 160/12/1
f 161/9/1 162/10/1 163/11/1 164/12/1
f 165/9/1 166/10/1 167/11/1 168/12/1
f 169/9/1 170/10/1 171/11/1 172/12/1
f 173/5/1 174/6/1 175/7/1 176/8/1
f 177/5/1 178/6/1 179/7/1 180/8/1
f 181/5/1 182/6/1 183/7/1 184/8/1
f 185/9/1 186/10/1 187/11/1 188/12/1
f 189/9/1 190/10/1 191/11/1 192/12/1
f 193/9/1 194/10/1 195/11/1 196/12/1
f 197/9/1 198/10/1 199/11/1 200/12/1
f 201/9/1 202/10/1 203/11/1 204/12/1
f 205/9/1 206/10/1 207/11/1 208/12/1
f 209/9/1 210/10/1 211/11/1 212/12/1
f 213/9/1 214/10/1 215/11/1 216/12/1
f 217/9/1 218/10/1 219/11/1 220/12/1
f 221/9/1 222/10/1 223/11/1 224/12/1
f 225/9/1 226/10/1 227/11/1 228/12/1
f 229/13/1 230/14/1 231/15/1 232/16/1
f 233/14/1 234/17/1 235/18/1 236/15/1
f 237/17/1 238/19/1 239/20/1 240/18/1
f 241/19/1 242/21/1 243/22/1 244/20/1
f 245/21/1 246/23/1 247/24/1 248/22/1
f 249/9/1 250/10/1 251/11/1 252/12/1
f 253/9/1 254/10/1 255/11/1 256/12/1
f 257/25/1 258/26/1 259/27/1 260/28/1
f 261/9/1 262/10/1 263/11/1 264/12/1
f 265/29/1 266/30/1 267/31/1 268/32/1
f 269/9/1 270/10/1 271/11/1 272/12/1
f 273/9/1 274/10/1 275/11/1 276/12/1
f 277/9/1 278/10/1 279/11/1 280/12/1
f 281/9/1 282/10/1 283/11/1 284/12/1
f 285/9/1 286/10/1 287/11/1 288/12/1
f 289/9/1 290/10/1 291/11/1 292/12/1
f 293/9/1 294/10/1 295/11/1 296/12/1
f 297/9/1 298/10/1 299/11/1 300/12/1
f 301/9/1 302/10/1 303/11/1 304/12/1
f 305/9/1 306/10/1 307/11/1 308/12/1
f 309/9/1 310/10/1 311/11/1 312/12/1
f 313/9/1 314/10/1 315/11/1 316/12/1
f 317/9/1 318/10/1 319/11/1 320/12/1
f 321/9/1 322/10/1 323/11/1 324/12/1
f 325/9/1 326/10/1 327/11/1 328/12/1
f 329/9/1 330/10/1 331/11/1 332/12/1
f 333/5/1 334/6/1 335/7/1 336/8/1
f 337/5/1 338/6/1 339/7/1 340/8/1
f 341/9/1 342/10/1 343/11/1 344/12/1
f 345/9/1 346/10/1 347/11/1 348/12/1
f 349/9/1 350/10/1 351/11/1 352/12/1
f 353/9/1 354/10/1 355/11/1 356/12/1
f 357/9/1 358/10/1 359/11/1 360/12/1
f 361/25/1 362/26/1 363/27/1 364/28/1
f 365/9/1 366/10/1 367/11/1 368/12/1
f 369/9/1 370/10/1 371/11/1 372/12/1
f 373/9/1 374/10/1 375/11/1 376/12/1
f 377/9/1 378/10/1 379/11/1 380/12/1
f 381/29/1 382/30/1 383/31/1 384/32/1
f 385/5/1 386/6/1 387/7/1 388/8/1
f 389/5/1 390/6/1 391/7/1 392/8/1
f 393/5/1 394/6/1 395/7/1 396/8/1
f 397/9/1 398/10/1 399/11/1 400/12/1
f 401/9/1 402/10/1 403/11/1 404/12/1
f 405/9/1 406/10/1 407/11/1 408/12/1
f 409/9/1 410/10/1 411/11/1 412/12/1
f 413/9/1 414/10/1 415/11/1 416/12/1
f 417/9/1 418/10/1 419/11/1 420/12/1
f 421/9/1 422/10/1 423/11/1 424/12/1
f 425/9/1 426/10/1 427/11/1 428/12/1
f 429/9/1 430/10/1 431/11/1 432/12/1
f 433/9/1 434/10/1 435/11/1 436/12/1
f 437/9/1 438/10/1 439/11/1 440/12/1
f 441/9/1 442/10/1 443/11/1 444/12/1
f 445/9/1 446/10/1 447/11/1 448/12/1
f 449/9/1 450/10/1 451/11/1 452/12/1
f 453/9/1 454/10/1 455/11/1 456/12/1
f 457/9/1 458/10/1 459/11/1 460/12/1
f 461/9/1 462/10/1 463/11/1 464/12/1
f 465/9/1 466/10/1 467/11/1 468/12/1
f 469/9/1 470/10/1 471/11/1 472/12/1
f 473/9/1 474/10/1 475/11/1 476/12/1
f 477/9/1 478/10/1 479/11/1 480/12/1
f 481/9/1 482/10/1 483/11/1 484/12/1
f 485/9/1 486/10/1 487/11/1 488/12/1
f 489/9/1 490/10/1 491/11/1 492/12/1
f 493/9/1 494/10/1 495/11/1 496/12/1
f 497/9/1 498/10/1 499/11/1 500/12/1
f 501/9/1 502/10/1 503/11/1 504/12/1
f 505/33/1 506/34/1 507/5/1 508/35/1
f 509/34/1 510/36/1 511/6/1 512/5/1
f 513/36/1 514/37/1 515/9/1 516/6/1
f 517/37/1 518/38/1 519/10/1 520/9/1
f 521/38/1 522/39/1 523/40/1 524/10/1
f 525/39/1 526/41/1 527/42/1 528/40/1
f 529/41/1 530/43/1 531/44/1 532/42/1
f 533/43/1 534/45/1 535/46/1 536/44/1
f 537/9/1 538/10/1 539/11/1 540/12/1
f 541/9/1 542/10/1 543/11/1 544/12/1
f 545/9/1 546/10/1 547/11/1 548/12/1
f 549/41/1 550/43/1 551/44/1 552/42/1
f 553/33/1 554/34/1 555/5/1 556/35/1
f 557/34/1 558/36/1 559/6/1 560/5/1
f 561/36/1 562/37/1 563/9/1 564/6/1
f 565/37/1 566/38/1 567/10/1 568/9/1
f 569/38/1 570/39/1 571/40/1 572/10/1
f 573/39/1 574/41/1 575/42/1 576/40/1
f 577/41/1 578/43/1 579/44/1 580/42/1
f 581/43/1 582/45/1 583/46/1 584/44/1
f 585/25/1 586/26/1 587/27/1 588/28/1
f 589/47/1 590/48/1 591/36/1 592/34/1
f 593/25/1 594/26/1 595/27/1 596/28/1
f 597/25/1 598/26/1 599/27/1 600/28/1
f 601/49/1 602/50/1 603/41/1 604/39/1
f 605/25/1 606/26/1 607/27/1 608/28/1
f 609/29/1 610/30/1 611/31/1 612/32/1
f 613/51/1 614/47/1 615/34/1 616/33/1
f 617/47/1 618/48/1 619/36/1 620/34/1
f 621/25/1 622/26/1 623/27/1 624/28/1
f 625/25/1 626/26/1 627/27/1 628/28/1
f 629/25/1 630/26/1 631/27/1 632/28/1
f 633/25/1 634/26/1 635/27/1 636/28/1
f 637/25/1 638/26/1 639/27/1 640/28/1
f 641/52/1 642/53/1 643/54/1 644/55/1
f 645/53/1 646/56/1 647/57/1 648/54/1
f 649/56/1 650/58/1 651/59/1 652/57/1
f 653/50/1 654/60/1 655/43/1 656/41/1

